<?xml version="1.0" standalone="no"?>
<!DOCTYPE svg PUBLIC "-//W3C//DTD SVG 20010904//EN"
 "http://www.w3.org/TR/2001/REC-SVG-20010904/DTD/svg10.dtd">
<svg version="1.0" xmlns="http://www.w3.org/2000/svg"
 width="771.000000pt" height="771.000000pt" viewBox="0 0 771.000000 771.000000"
 preserveAspectRatio="xMidYMid meet">
<metadata>
Created by potrace 1.11, written by Peter Selinger 2001-2013
</metadata>
<g transform="translate(0.000000,771.000000) scale(0.100000,-0.100000)"
fill="#000000" stroke="none">
<path d="M3609 7556 c-2 -2 -43 -6 -90 -10 -47 -4 -96 -9 -109 -11 -12 -2 -48
-7 -79 -11 -31 -3 -58 -8 -61 -9 -3 -2 -26 -6 -50 -10 -182 -26 -602 -154
-800 -242 -675 -304 -1147 -654 -1529 -1133 -42 -52 -79 -97 -82 -100 -16 -13
-203 -296 -252 -382 -54 -94 -67 -120 -120 -239 -36 -81 -51 -156 -38 -178 24
-38 103 33 301 269 58 69 107 127 110 130 3 3 46 52 95 110 49 58 94 110 100
116 5 6 46 51 90 100 114 127 384 397 490 490 679 598 1292 820 1865 674 105
-27 242 -79 235 -89 -2 -5 -77 -7 -166 -6 -147 3 -162 2 -180 -16 -25 -25 -24
-64 1 -89 19 -19 34 -20 273 -21 138 -1 266 -3 282 -4 104 -7 232 -17 245 -20
8 -2 44 -6 80 -10 36 -4 72 -8 80 -10 8 -1 35 -6 60 -10 25 -4 54 -9 65 -11
11 -3 36 -7 55 -10 19 -3 76 -15 125 -26 112 -24 124 -27 155 -33 53 -10 311
-86 436 -129 812 -279 1409 -754 1742 -1386 159 -301 258 -626 327 -1070 2
-14 7 -49 10 -79 4 -30 9 -63 11 -75 7 -34 16 -135 18 -201 4 -99 -18 -186
-77 -303 -30 -59 -62 -131 -72 -161 -24 -72 -16 -157 21 -236 27 -56 29 -68
28 -175 -1 -127 -16 -193 -80 -343 -29 -66 -34 -90 -29 -122 7 -46 31 -88 77
-132 l34 -33 66 68 c44 44 69 77 72 97 3 17 12 86 21 155 22 176 23 188 30
255 3 33 8 78 10 100 31 305 40 492 40 885 0 326 -6 502 -20 625 -2 22 -9 83
-15 135 -71 635 -263 1169 -549 1525 -116 145 -290 297 -437 382 -51 30 -66
45 -88 90 -14 29 -26 57 -26 62 0 4 21 9 48 10 42 2 94 6 129 10 9 1 12 27 10
93 l-2 91 -95 32 c-52 18 -104 31 -115 29 -11 -2 -42 -6 -69 -9 -27 -4 -58 -8
-69 -11 -18 -3 -80 -12 -217 -30 -19 -2 -44 -6 -55 -9 -14 -3 -43 17 -100 70
-67 62 -106 88 -245 159 -346 177 -677 294 -1020 360 -158 30 -180 34 -260 42
-36 3 -76 8 -90 11 -29 6 -545 15 -551 9z"/>
<path d="M485 4961 c-59 -26 -110 -85 -128 -145 -9 -28 -18 -96 -21 -151 -9
-153 -14 -187 -71 -445 -41 -187 -48 -219 -60 -302 -18 -116 -23 -202 -20
-373 2 -104 6 -201 9 -215 3 -14 7 -45 10 -70 12 -100 57 -284 109 -445 50
-152 71 -222 83 -277 2 -10 6 -26 8 -35 24 -97 36 -155 41 -188 3 -22 8 -46
10 -53 5 -14 51 -293 60 -362 18 -143 18 -150 4 -151 -8 -1 -81 -2 -164 -3
-148 -2 -151 -2 -212 -34 l-63 -32 65 -130 c36 -72 68 -130 71 -130 3 0 56 -9
117 -19 62 -11 130 -22 152 -26 121 -18 105 -6 163 -124 175 -359 456 -647
773 -795 153 -71 414 -150 639 -192 14 -3 45 -10 70 -15 54 -12 253 -49 354
-64 21 -4 48 -9 60 -11 11 -2 37 -7 56 -9 19 -3 46 -8 59 -11 31 -7 368 -62
451 -74 36 -5 110 -16 165 -24 55 -8 127 -18 160 -22 33 -3 67 -8 76 -9 141
-27 757 -26 989 0 19 2 62 7 95 10 58 5 113 12 165 20 14 2 57 9 95 15 373 59
724 185 952 342 146 101 276 242 342 373 30 59 41 124 21 126 -5 1 -16 2 -22
4 -22 3 -112 -51 -250 -150 -167 -120 -306 -215 -313 -215 -2 0 -32 -18 -67
-39 -91 -55 -268 -142 -368 -181 -47 -18 -94 -36 -105 -41 -21 -8 -63 -21 -80
-25 -5 -1 -44 -11 -85 -23 -90 -24 -238 -50 -340 -59 -163 -15 -699 -7 -855
13 -22 2 -98 11 -170 20 -71 8 -141 17 -155 19 -14 3 -52 7 -85 11 -33 3 -105
12 -160 20 -55 8 -120 16 -145 19 -48 5 -105 13 -155 21 -16 3 -50 8 -75 11
-77 11 -187 42 -283 80 -170 68 -518 258 -577 316 -57 56 -78 143 -57 231 l7
27 96 0 c91 0 99 -2 161 -36 347 -190 686 -326 1028 -410 141 -35 157 -38 229
-49 21 -4 47 -8 56 -10 10 -2 40 -6 67 -10 26 -4 59 -8 73 -10 141 -20 501
-26 650 -11 118 11 267 34 368 57 52 12 99 22 105 23 90 19 317 92 517 166
150 56 181 68 246 96 16 7 68 29 115 49 116 50 382 188 509 265 213 129 388
259 521 390 92 91 115 122 203 270 79 133 134 209 187 263 42 42 62 94 57 147
l-3 35 -62 3 -62 3 -48 -63 c-379 -494 -750 -814 -1256 -1082 -159 -84 -530
-234 -623 -252 -12 -2 -51 -13 -86 -24 -35 -11 -81 -22 -103 -26 -22 -3 -43
-8 -47 -10 -5 -3 -118 -26 -193 -39 -18 -4 -114 -16 -225 -30 -107 -14 -506
-21 -600 -11 -19 2 -75 7 -125 11 -49 4 -92 8 -95 10 -3 2 -34 6 -70 10 -36 4
-68 9 -71 10 -3 2 -28 7 -55 10 -27 4 -98 18 -159 32 -763 170 -1505 582
-1952 1082 -215 240 -366 481 -487 773 -80 193 -197 583 -220 734 -4 21 -11
64 -16 94 -35 199 -30 394 15 585 13 55 26 123 30 150 3 28 8 59 10 70 2 11 6
52 10 90 23 274 35 358 76 517 21 82 21 88 5 112 -20 32 -62 34 -121 7z"/>
<path d="M1167 4690 c-77 -14 -157 -41 -225 -77 -84 -43 -97 -53 -164 -120
-89 -87 -120 -191 -79 -259 18 -30 84 -64 98 -51 3 3 6 43 7 89 2 89 24 149
82 217 117 140 383 188 553 101 184 -93 244 -378 150 -705 -89 -306 -328 -592
-567 -677 -58 -21 -252 -38 -252 -23 0 15 71 289 111 430 58 202 199 620 258
764 27 68 48 128 45 132 -10 16 -63 20 -91 6 -35 -19 -54 -40 -85 -97 -63
-114 -295 -853 -356 -1132 l-20 -87 27 -25 c45 -43 97 -59 196 -59 416 1 829
391 919 868 22 115 15 298 -14 390 -48 154 -139 253 -275 299 -58 20 -245 30
-318 16z"/>
<path d="M2195 4670 c-114 -31 -212 -67 -220 -80 -10 -16 14 -49 40 -56 18 -4
47 5 103 34 70 36 181 77 189 69 1 -2 -21 -60 -51 -128 -119 -276 -246 -617
-376 -1009 -77 -232 -83 -255 -81 -296 2 -42 79 -98 121 -87 15 4 61 154 202
661 9 32 10 30 77 -105 151 -306 307 -531 421 -607 33 -22 76 -20 115 4 48 29
50 47 13 78 -127 106 -253 246 -342 380 -51 78 -218 364 -213 368 1 1 29 5 62
8 334 29 544 125 622 284 24 49 28 69 28 142 -1 106 -25 165 -94 230 -96 90
-217 131 -396 135 -104 2 -133 -1 -220 -25z m382 -46 c69 -19 145 -80 168
-136 26 -64 27 -151 3 -227 -46 -149 -251 -276 -492 -307 -23 -3 -51 -7 -63
-9 -13 -2 -23 -2 -23 0 0 2 21 68 46 147 58 179 136 391 180 486 l33 73 48 -6
c26 -4 71 -13 100 -21z"/>
<path d="M3355 4692 c-151 -9 -248 -48 -283 -111 -12 -21 -19 -40 -17 -43 3
-3 38 1 78 8 39 7 137 16 216 20 139 7 144 6 137 -12 -12 -29 -63 -230 -102
-404 -90 -398 -177 -716 -224 -822 l-20 -45 -83 -6 c-140 -11 -208 -46 -227
-118 -6 -23 -10 -42 -8 -44 2 -2 23 0 48 5 81 15 172 21 388 25 239 4 301 16
355 65 l32 29 -35 2 c-19 1 -48 3 -65 4 -51 6 -127 14 -200 21 -38 4 -77 8
-85 10 -8 1 -19 3 -25 3 -6 1 -6 4 1 9 23 16 64 81 88 142 34 84 83 286 140
575 57 288 104 538 105 560 1 6 46 10 116 10 133 0 214 13 252 41 45 34 39 41
-39 49 -40 4 -80 8 -88 10 -69 12 -363 23 -455 17z"/>
<path d="M4250 4686 c-74 -28 -87 -35 -138 -75 -74 -59 -117 -107 -148 -169
-51 -100 -42 -196 20 -226 63 -30 71 -24 68 44 -8 133 80 307 174 346 43 18
64 6 64 -36 0 -25 -82 -315 -175 -615 -18 -60 -70 -227 -114 -370 -81 -266
-125 -413 -134 -451 -4 -20 -2 -21 25 -13 40 11 54 24 85 76 53 91 116 287
283 880 49 173 91 317 93 319 2 2 12 -53 22 -123 9 -71 19 -135 20 -145 3 -15
13 -82 20 -138 14 -105 104 -675 115 -727 19 -88 67 -140 136 -148 20 -2 24 2
25 24 1 74 36 282 80 481 70 314 237 897 304 1063 19 47 -81 -3 -115 -58 -50
-80 -252 -785 -311 -1085 l-13 -65 -12 75 c-7 41 -15 104 -19 140 -4 36 -8 67
-10 70 -1 3 -6 37 -9 75 -4 39 -9 77 -11 85 -2 8 -6 47 -10 85 -6 63 -36 296
-51 385 -11 74 -46 187 -70 228 -44 75 -112 99 -194 68z"/>
<path d="M5480 4683 c-154 -53 -309 -231 -311 -353 -1 -65 15 -99 56 -115 59
-25 63 -22 62 48 -1 143 100 328 198 361 81 28 92 -7 46 -144 -16 -47 -86
-251 -156 -455 -70 -203 -138 -402 -151 -442 -13 -40 -53 -150 -89 -245 -36
-95 -65 -176 -65 -181 0 -11 91 -2 117 11 10 6 26 19 35 29 13 14 130 372 205
624 3 11 27 -25 63 -96 108 -206 217 -374 323 -497 93 -107 159 -133 230 -89
20 12 37 27 40 34 2 6 -17 30 -42 51 -102 87 -271 266 -337 356 -92 124 -218
331 -207 340 4 4 71 51 148 106 309 219 505 410 539 526 13 43 11 111 -4 137
-5 10 -16 1 -40 -34 -86 -125 -312 -360 -462 -481 -40 -32 -99 -80 -130 -107
l-57 -48 10 38 c10 38 63 209 121 393 17 52 31 119 32 148 1 47 -2 57 -27 78
-33 28 -80 31 -147 7z"/>
<path d="M6770 4694 c-251 -48 -462 -282 -463 -514 -1 -94 22 -150 90 -217 47
-47 83 -72 267 -184 103 -63 184 -137 210 -194 26 -55 25 -157 -2 -210 -78
-153 -344 -223 -502 -132 -43 24 -93 89 -110 140 -28 87 -5 208 56 297 19 28
34 54 31 56 -7 7 -96 -15 -131 -32 -41 -21 -93 -80 -108 -124 -21 -59 -15
-197 11 -253 139 -303 706 -270 866 50 27 53 30 67 29 158 0 84 -3 107 -23
148 -45 91 -125 158 -340 283 -101 59 -173 121 -196 170 -55 115 43 331 197
436 100 67 244 92 288 48 40 -40 33 -83 -54 -323 -38 -103 -44 -150 -25 -190
14 -31 53 -51 67 -34 20 25 81 155 106 227 47 137 52 230 15 307 -31 64 -75
86 -173 89 -45 1 -92 0 -106 -2z"/>
</g>
</svg>
