<svg id="Layer_1" data-name="Layer 1" xmlns="http://www.w3.org/2000/svg" viewBox="0 0 186 176"><defs><style>.cls-1,.cls-3{fill:none;}.cls-1,.cls-2,.cls-3{stroke:#000;stroke-miterlimit:10;}.cls-3{stroke-width:0.25px;}</style></defs><path class="cls-1" d="M117.75,142.07h-17a16,16,0,0,0-4.85,0,32.81,32.81,0,0,0-3.64,1.21,21.85,21.85,0,0,1-6.54.87c-2.27,0-5.56-.31-5.6-.87s1.91-1.06,3.65-1.21c2.17-.19,3.06.45,4.85,0a6.58,6.58,0,0,0,2.43-1.22,5.82,5.82,0,0,1-1.06-.59c-2.84-2-3.09-6.2-3.19-8.51-1-20.74-.93-22.67,0-26.69a61.4,61.4,0,0,1,3.64-10.93A8.47,8.47,0,0,1,88,95.35c-4.66,1.43-9-1.89-9.71-2.43A11.92,11.92,0,0,0,82,94.13a13.64,13.64,0,0,0,9.7-2.42l21.85-30.34h-2.43L78.31,62.82l1.22,3.4a5.35,5.35,0,0,1,1.21,0c4,.5,6,5.8,6.07,6.07C88.51,77,86,81.3,85.6,82L88,90.49l-3.64-7.28A2.3,2.3,0,0,0,83.17,82,2,2,0,0,0,82,82c-2,.44-4.62-2.18-4.86-2.43a8.68,8.68,0,0,1-2.43-4.85,9.26,9.26,0,0,1,2.43-7.28l-1.21-4.86a31.24,31.24,0,0,1-19.42-3.64c1.76.35,4.26.8,7.28,1.22a151.78,151.78,0,0,0,23.06,1.21c7,0,16.08-.32,26.7-1.21.65-.07,2-.3,2.42-1.22h0s.3-.37,0-1.21c-.47-1.33-25.05-1.75-28.51-1.82-5-.11-9.07-.4-11.53-.61L71,44.38c-.73-.91-1.51-2-1.21-2.43.18-.23.65,0,1.21,0a5.26,5.26,0,0,0,4.86-3.64,2.88,2.88,0,0,0,0-2.42c-1.14-1.66-5.66-1-8.5,1.21C66,38.18,64.51,40,65,40.74s2.1.1,3.44-.25a15.69,15.69,0,0,0,2.62-1V38.31a2,2,0,0,0-1.21,0,2.26,2.26,0,0,0-1.21,1.22c-1,1.78-.15,4.39,0,4.85l6.06,14.56L72.25,55.3H61.33a24.23,24.23,0,0,0-2.43,0c-2.62.15-4.17.23-4.86,1.22-1,1.43.43,3.94.61,4.24l17.6,24.88,2,3a35.69,35.69,0,0,1,5.3,9.11A34.85,34.85,0,0,1,82,111.12v20.63A12.18,12.18,0,0,1,82,133a11.62,11.62,0,0,1-4.86,8.49c-3.5,2.39-7.08,1.39-7.28,2.43s2.76,2.57,6.07,3.64c14,4.51,28.46-2.83,29.12-1.22.28.7-2.24,2.32-2.43,2.43-13.51,8.57-33.69,5.07-37.61,0-.48-.61-1.62-2.09-1.22-3.64a4.18,4.18,0,0,1,2.43-2.43H51.62"/><path class="cls-2" d="M23.71,72.29c-1.56,5.09-1,10.65-2.43,15.78-2.8,10.24,4.35,26.76,4.85,27.91,10.39,23.5,36.52,31.2,42.48,32.76A67,67,0,0,0,141.42,122h2.42a3.56,3.56,0,0,1,0,1.79,3.92,3.92,0,0,1-1.21,1.86c-1.73,1.57-3.71,5.61-4.85,7.28-2.61,3.8-11.87,11.32-26.7,17a76.84,76.84,0,0,1-17,4.86c-19.21,2.79-35.6-5-43.69-9.71H46.76a4.62,4.62,0,0,0,2.43,6.07c6,3.38,9,5.07,13.35,6.07,1,.22,3.5.55,8.49,1.21.86.11,7,.92,9.71,1.21,1.23.13,11.52,1.2,19.42,0,16.16-2.46,26.32-15.06,27.91-13.35.66.72-.92,3.19-1.22,3.64-7.83,12-28.93,13-36.4,13.35-9.25.45-17.09-.92-32.76-3.64-14-2.44-19.44-4.48-24.27-8.49a34.82,34.82,0,0,1-9.71-13.35l-7.28-1.21L14,131.75l2.43-1.21h6.06c-.22-2-.59-4.95-1.21-8.5-2.05-11.66-3.72-12.08-4.85-19.41-2.06-13.29,2.3-19.25,2.42-27.91a5.47,5.47,0,0,1,1.22-3.64c1.07-1.18,3-1.82,3.64-1.21S23.86,71.8,23.71,72.29Z"/><path class="cls-2" d="M20.07,65C18.68,64,25,51,35.84,40.74A71.71,71.71,0,0,1,49.19,31a72.57,72.57,0,0,1,29.12-9.7c19.81-1.9,35.21,6.11,41.26,9.7L122,33.46l8.49-1.21,3.64,1.21v3.42l-3.64.22,1.22,2.43A27.72,27.72,0,0,1,134.13,41c22.23,14.91,18.55,56.91,15.78,76.2l-2.43,2.43a4.84,4.84,0,0,1-2.14-3.11c-.11-1,.34-1.54.93-3a15,15,0,0,0,1.21-7.28c-.28-2.06-1-1.85-1.21-3.64-.35-2.93,1.42-4.66,2.43-7.28s.67-5,0-9.71-2-14-7.28-23.06C128.68,40.71,102.05,35.89,95.3,34.67a78.52,78.52,0,0,0-15.77-1.21H75.89a1.22,1.22,0,1,1,0-2.43l3.09.21L82,31a27.3,27.3,0,0,0-8.5-2.42C46.34,25.57,22.59,66.91,20.07,65Z"/><line class="cls-3" x1="144.45" y1="18.29" x2="144.45" y2="24.36"/><line class="cls-3" x1="142.02" y1="20.72" x2="146.88" y2="20.72"/><line class="cls-3" x1="144.45" y1="19.51" x2="144.45" y2="26.79"/><line class="cls-3" x1="142.02" y1="23.15" x2="146.88" y2="23.15"/><line class="cls-3" x1="145.66" y1="21.93" x2="143.24" y2="24.36"/><line class="cls-3" x1="143.24" y1="21.93" x2="145.66" y2="24.36"/><line class="cls-3" x1="148.7" y1="23.75" x2="148.7" y2="29.21"/><line class="cls-3" x1="146.88" y1="26.48" x2="150.52" y2="26.48"/><line class="cls-3" x1="149.61" y1="25.57" x2="147.79" y2="27.39"/><line class="cls-3" x1="147.79" y1="25.57" x2="149.61" y2="27.39"/><line class="cls-3" x1="148.49" y1="46.2" x2="148.49" y2="51.06"/><line class="cls-3" x1="146.88" y1="48.63" x2="150.11" y2="48.63"/><line class="cls-3" x1="149.3" y1="47.82" x2="147.69" y2="49.44"/><line class="cls-3" x1="147.69" y1="47.82" x2="149.3" y2="49.44"/><line class="cls-3" x1="150.52" y1="49.84" x2="150.52" y2="57.12"/><line class="cls-3" x1="148.09" y1="53.48" x2="152.94" y2="53.48"/><line class="cls-3" x1="151.73" y1="52.27" x2="149.3" y2="54.7"/><line class="cls-3" x1="149.3" y1="52.27" x2="151.73" y2="54.7"/><line class="cls-3" x1="161.44" y1="40.13" x2="161.44" y2="47.42"/><line class="cls-3" x1="159.01" y1="43.78" x2="163.87" y2="43.78"/><line class="cls-3" x1="162.65" y1="42.56" x2="160.22" y2="44.99"/><line class="cls-3" x1="160.22" y1="42.56" x2="162.65" y2="44.99"/><line class="cls-3" x1="166.29" y1="55.91" x2="166.29" y2="63.19"/><line class="cls-3" x1="163.87" y1="59.55" x2="168.72" y2="59.55"/><line class="cls-3" x1="167.51" y1="58.34" x2="165.08" y2="60.76"/><line class="cls-3" x1="165.08" y1="58.34" x2="167.51" y2="60.76"/><line class="cls-3" x1="174.18" y1="51.66" x2="174.18" y2="57.12"/><line class="cls-3" x1="172.36" y1="54.39" x2="176" y2="54.39"/><line class="cls-3" x1="175.09" y1="53.48" x2="173.27" y2="55.3"/><line class="cls-3" x1="173.27" y1="53.48" x2="175.09" y2="55.3"/><line class="cls-3" x1="156.99" y1="69.26" x2="156.99" y2="74.11"/><line class="cls-3" x1="155.37" y1="71.69" x2="158.61" y2="71.69"/><line class="cls-3" x1="157.8" y1="70.88" x2="156.18" y2="72.49"/><line class="cls-3" x1="156.18" y1="70.88" x2="157.8" y2="72.49"/><line class="cls-3" x1="169.93" y1="71.69" x2="169.93" y2="78.97"/><line class="cls-3" x1="167.51" y1="75.33" x2="172.36" y2="75.33"/><line class="cls-3" x1="171.15" y1="74.11" x2="168.72" y2="76.54"/><line class="cls-3" x1="168.72" y1="74.11" x2="171.15" y2="76.54"/><line class="cls-3" x1="154.76" y1="85.64" x2="154.76" y2="91.1"/><line class="cls-3" x1="152.94" y1="88.37" x2="156.58" y2="88.37"/><line class="cls-3" x1="155.67" y1="87.46" x2="153.85" y2="89.28"/><line class="cls-3" x1="153.85" y1="87.46" x2="155.67" y2="89.28"/><path class="cls-1" d="M85.69,70.33a3.73,3.73,0,0,1-.09,2c-1.09,3.62-1,8.52-1.22,8.5s0-1.46,0-7.28a6.41,6.41,0,0,0,0-1.22,3.4,3.4,0,0,0-.6-1.82s0,.08,0,1.22a5.32,5.32,0,0,1,0,1.21,1.87,1.87,0,0,1-1.22,1.21c-1,.3-2-.62-2.43-1.21a3.26,3.26,0,0,1,0-3.64A3.21,3.21,0,0,1,83.78,68,3.33,3.33,0,0,1,85.69,70.33Z"/></svg>
